<?xml version="1.0" encoding="utf-8"?>
<!-- Generator: Adobe Illustrator 22.0.1, SVG Export Plug-In . SVG Version: 6.00 Build 0)  -->
<svg version="1.1" id="Layer_1" xmlns="http://www.w3.org/2000/svg" xmlns:xlink="http://www.w3.org/1999/xlink" x="0px" y="0px"
	 viewBox="0 0 300 300" style="enable-background:new 0 0 300 300;" xml:space="preserve">
<style type="text/css">
	.st0{fill:#FFFFFF;}
</style>
<rect x="40" y="53" width="211" height="189"/>
<g>
	<g>
		<path class="st0" d="M150,0C67.2,0,0,67.2,0,150s67.2,150,150,150s150-67.2,150-150S232.8,0,150,0z M89.5,211.2l-37.2,10l10.2-38
			c-7-12.1-11.1-26.1-11.1-41c0-45.1,36.5-81.6,81.6-81.6s81.6,36.5,81.6,81.6s-36.5,81.6-81.6,81.6
			C117,223.8,102.1,219.2,89.5,211.2z M247.8,237l-33.8-9.1c-11.5,7.3-25.1,11.5-39.6,11.5c-10.4,0-20.3-2.1-29.2-6
			c45.1-5.9,80-44.5,80-91.2c0-13.5-3-26.4-8.2-37.9c19.2,13.4,31.7,35.7,31.7,60.9c0,13.6-3.7,26.3-10.1,37.3L247.8,237z"/>
	</g>
</g>
</svg>
