<?xml version="1.0" encoding="utf-8"?>
<!-- Generator: Adobe Illustrator 22.0.1, SVG Export Plug-In . SVG Version: 6.00 Build 0)  -->
<svg version="1.1" id="Capa_1" xmlns="http://www.w3.org/2000/svg" xmlns:xlink="http://www.w3.org/1999/xlink" x="0px" y="0px"
	 viewBox="0 0 512 512" style="enable-background:new 0 0 512 512;" xml:space="preserve">
<style type="text/css">
	.st0{fill:#E05A5A;}
	.st1{fill:#FFFFFF;}
</style>
<circle id="circle-fill" class="st0" cx="256" cy="256" r="255"/>
<path class="st1" d="M349.1,159c-3.7-3.7-9.9-3.7-13.7,0L255,239.4L174.6,159c-3.7-3.7-9.9-3.7-13.7,0c-3.7,3.7-3.7,9.9,0,13.7
	l80.4,80.4l-80.4,80.4c-3.7,3.7-3.7,9.9,0,13.7c1.9,1.9,4.3,2.9,6.9,2.9c2.5,0,4.9-1,6.9-2.9l80.4-80.4l80.4,80.4
	c1.9,1.9,4.3,2.9,6.9,2.9c2.5,0,4.9-1,6.9-2.9c3.7-3.7,3.7-9.9,0-13.7L268.7,253l80.4-80.4C352.9,168.9,352.9,162.8,349.1,159z"/>
</svg>
