<?xml version="1.0" encoding="iso-8859-1"?>
<!-- Generator: Adobe Illustrator 16.0.0, SVG Export Plug-In . SVG Version: 6.00 Build 0)  -->
<!DOCTYPE svg PUBLIC "-//W3C//DTD SVG 1.1//EN" "http://www.w3.org/Graphics/SVG/1.1/DTD/svg11.dtd">
<svg xmlns="http://www.w3.org/2000/svg" xmlns:xlink="http://www.w3.org/1999/xlink" version="1.1" id="Capa_1" x="0px" y="0px" width="512px" height="512px" viewBox="0 0 97.174 97.173" style="enable-background:new 0 0 97.174 97.173;" xml:space="preserve">
<g>
	<path d="M97.104,63.326L81.346,5.859c-0.238-0.868-1.027-1.471-1.929-1.471h-61.66c-0.901,0-1.69,0.603-1.929,1.471L0.071,63.326   C0.024,63.499,0,63.676,0,63.855v26.931c0,1.104,0.896,2,2,2h93.174c1.104,0,2-0.896,2-2V63.855   C97.174,63.676,97.15,63.499,97.104,63.326z M73.46,12.733l11.931,43.01h-19.77c-1.104,0-2,0.896-2,2v19.169H33.553V57.744   c0-1.104-0.896-2-2-2h-19.77l11.931-43.01H73.46z" fill="#FFFFFF"/>
</g>
<g>
</g>
<g>
</g>
<g>
</g>
<g>
</g>
<g>
</g>
<g>
</g>
<g>
</g>
<g>
</g>
<g>
</g>
<g>
</g>
<g>
</g>
<g>
</g>
<g>
</g>
<g>
</g>
<g>
</g>
</svg>
