<svg height="512pt" viewBox="0 -9 512.00001 512" width="512pt" xmlns="http://www.w3.org/2000/svg"><path d="m131.574219 111.707031 46.710937-70.125c28.601563-42.902343 86.566406-54.492187 129.464844-25.890625 10.253906 6.835938 19.054688 15.636719 25.890625 25.890625l46.746094 70.125c3.867187 5.84375 6.902343 12.195313 9.023437 18.871094l-65.734375-29.210937h-.074219c-1.136718-.503907-2.359374-.773438-3.601562-.785157h-128c-1.257812 0-2.503906.261719-3.65625.765625h-.074219l-65.738281 29.257813c2.128906-6.6875 5.171875-13.046875 9.042969-18.898438zm161.492187 46.976563c-5.566406 2.777344-12.195312 2.363281-17.371094-1.078125-11.945312-8-27.535156-8-39.480468 0-5.167969 3.425781-11.773438 3.835937-17.324219 1.078125l-17.75-8.898438v-30.917968h109.714844v30.917968zm17.789063 11.546875v29.476562c-.019531 15.9375-12.933594 28.851563-28.871094 28.871094h-51.96875c-15.9375-.019531-28.851563-12.933594-28.871094-28.871094v-29.476562l9.617188 4.816406c11.429687 5.695313 25.027343 4.84375 35.65625-2.230469 5.8125-3.882812 13.390625-3.882812 19.199219 0 10.628906 7.074219 24.230468 7.925782 35.660156 2.230469zm-192-16.53125c0-.511719.101562-1.003907.109375-1.507813l63.890625-28.398437v75.886719c.011719 26.046874 21.113281 47.160156 47.160156 47.1875h51.96875c26.035156-.027344 47.132813-21.125 47.160156-47.160157v-75.886719l63.886719 28.398438c0 .503906.109375.996094.109375 1.507812-.015625 11.742188-2.75 23.320313-7.988281 33.828126l-52.515625 105.027343h-153.273438l-52.515625-105.035156c-5.242187-10.515625-7.976562-22.097656-7.992187-33.847656zm-18.285157 294.308593h-73.140624c-15.148438 0-27.429688-12.277343-27.429688-27.425781 0-15.148437 12.28125-27.429687 27.429688-27.429687h73.140624zm0-146.285156v73.144532h-73.140624c-.667969 0-1.289063.164062-1.949219.199218l77.222656-112.15625c6.9375-11.054687 16.730469-20.042968 28.339844-26.007812l27.878906 55.679687h-49.207031c-5.050782 0-9.144532 4.089844-9.144532 9.140625zm292.570313 192h-274.285156v-182.855468h274.285156zm9.144531-201.140625h-49.207031l27.839844-55.683593c11.742187 6.058593 21.628906 15.175781 28.617187 26.386718l76.984375 111.78125c-.660156 0-1.28125-.199218-1.949219-.199218h-73.140624v-73.144532c0-5.050781-4.09375-9.140625-9.144532-9.140625zm82.285156 155.425781h-73.140624v-54.855468h73.140624c15.148438 0 27.429688 12.28125 27.429688 27.429687 0 15.148438-12.28125 27.425781-27.429688 27.425781zm0 0"/></svg>