<?xml version="1.0"?>
<svg xmlns="http://www.w3.org/2000/svg" viewBox="0 0 64 64" width="512" height="512"><path d="m35 26h22v15h-22z" fill="#30aee5"/><path d="m35 7h22v15h-22z" fill="#9ddeed"/><path d="m8 26h22v15h-22z" fill="#30aee5"/><path d="m8 26h11v15h-11z" fill="#1e9bc6"/><path d="m35 26h11v15h-11z" fill="#1e9bc6"/><path d="m8 7h22v15h-22z" fill="#9ddeed"/><path d="m8 7h11v15h-11z" fill="#5bd1dd"/><path d="m35 7h11v15h-11z" fill="#5bd1dd"/><path d="m16 7h6v6h-6z" fill="#e87967"/><path d="m8 45h22v15h-22z" fill="#4278ba"/><path d="m35 45h22v15h-22z" fill="#4278ba"/><path d="m8 45h11v15h-11z" fill="#2e63af"/><path d="m35 45h11v15h-11z" fill="#2e63af"/><path d="m16 26h6v6h-6z" fill="#e87967"/><path d="m16 45h6v6h-6z" fill="#e87967"/><path d="m43 26h6v6h-6z" fill="#e87967"/><path d="m43 7h6v6h-6z" fill="#e87967"/><path d="m43 45h6v6h-6z" fill="#e87967"/><g fill="#e54e35"><path d="m43 45h3v6h-3z"/><path d="m43 26h3v6h-3z"/><path d="m43 7h3v6h-3z"/><path d="m16 45h3v6h-3z"/><path d="m16 26h3v6h-3z"/><path d="m16 7h3v6h-3z"/></g><path d="m62 24v-2h-58v-20h-2v59a.99974.99974 0 0 0 1 1h59v-2h-58v-17h58v-2h-58v-17z" fill="#3f4e56"/></svg>
